<svg width="20" height="17" viewBox="0 0 20 17" fill="none" xmlns="http://www.w3.org/2000/svg">
<path d="M0 7.95505C0.151845 7.59339 0.422139 7.46861 0.805142 7.47442C1.85918 7.49081 2.91375 7.47865 3.96779 7.48182C4.08154 7.48235 4.14833 7.47019 4.19164 7.33378C4.54334 6.21707 5.53111 5.48054 6.66551 5.47525C7.80148 5.46996 8.79394 6.21284 9.1566 7.33959C9.17017 7.38242 9.18634 7.42472 9.20617 7.48024C9.28444 7.48024 9.36167 7.48024 9.43889 7.48024C12.7059 7.48024 15.9729 7.48024 19.2399 7.48077C19.3177 7.48077 19.3975 7.47654 19.4737 7.48923C19.7873 7.54051 20.0158 7.83291 19.9971 8.15227C19.9788 8.4637 19.7294 8.72014 19.4179 8.74446C19.3469 8.75028 19.2749 8.7471 19.2034 8.7471C15.9494 8.7471 12.6955 8.7471 9.4415 8.7471C9.36428 8.7471 9.28705 8.7471 9.20147 8.7471C9.07781 9.19495 8.87482 9.5878 8.5654 9.9188C7.20766 11.3718 4.82355 10.8346 4.20521 8.93163C4.15825 8.78676 4.10033 8.74182 3.95005 8.74287C2.90227 8.75028 1.85449 8.736 0.806707 8.75239C0.42266 8.75874 0.15341 8.63184 0.000521803 8.27176C0 8.16602 0 8.0608 0 7.95505ZM8.02011 8.11103C8.01907 7.3544 7.41325 6.74053 6.66969 6.74158C5.92977 6.74264 5.31665 7.36497 5.31769 8.11473C5.31874 8.86396 5.93499 9.48628 6.67334 9.48417C7.41795 9.48258 8.02168 8.86713 8.02011 8.11103Z" fill="white"/>
<path d="M0 13.417C0.16489 13.0517 0.453447 12.9491 0.835928 12.9502C4.07059 12.9592 7.30524 12.9533 10.5399 12.9597C10.7304 12.9602 10.8128 12.9153 10.8785 12.7196C11.2396 11.6458 12.2389 10.9468 13.3582 10.9584C14.4675 10.9695 15.4381 11.6838 15.7892 12.7614C15.8393 12.9153 15.9051 12.9602 16.0611 12.9592C17.1219 12.9518 18.1827 12.9539 19.2436 12.957C19.3594 12.9576 19.4805 12.9655 19.5895 13.0009C19.8593 13.0892 20.032 13.389 19.9934 13.673C19.9537 13.9701 19.7142 14.2091 19.4121 14.2149C18.8397 14.2265 18.2668 14.2207 17.6938 14.2218C17.1407 14.2223 16.5876 14.2255 16.0345 14.2191C15.9051 14.2176 15.8451 14.2493 15.8018 14.3862C15.4495 15.4971 14.4513 16.231 13.3159 16.2273C12.1904 16.2236 11.2031 15.4913 10.854 14.3841C10.805 14.2276 10.722 14.2207 10.5978 14.2213C7.32403 14.2228 4.05023 14.2191 0.776965 14.2271C0.397614 14.2281 0.138278 14.0944 0.000521803 13.7343C0 13.628 0 13.5223 0 13.417ZM11.9775 13.5936C11.979 14.3508 12.5843 14.962 13.3295 14.9604C14.0715 14.9583 14.6825 14.3376 14.6804 13.5878C14.6783 12.8349 14.0699 12.2242 13.3232 12.2253C12.5739 12.2258 11.9759 12.8338 11.9775 13.5936Z" fill="white"/>
<path d="M0 2.4931C0.135669 2.13039 0.395527 1.99926 0.775399 2.00032C4.02936 2.00878 7.28385 2.00349 10.5378 2.0093C10.7283 2.00983 10.8112 1.96542 10.8765 1.76873C11.2313 0.700139 12.2399 -0.00890413 13.3535 8.44805e-05C14.4566 0.0090731 15.4386 0.72922 15.7866 1.80204C15.8399 1.96648 15.9113 2.0093 16.0721 2.00825C17.1391 2.00137 18.2067 1.99926 19.2738 2.01089C19.4335 2.01248 19.6141 2.05848 19.7466 2.14466C19.9668 2.28795 20.044 2.52377 19.9762 2.78708C19.9094 3.04564 19.7414 3.20796 19.4779 3.25502C19.3954 3.26983 19.3098 3.27088 19.2253 3.27088C18.1645 3.27194 17.1037 3.27353 16.0428 3.26877C15.9072 3.26824 15.8425 3.29996 15.796 3.44484C15.4428 4.54832 14.4545 5.27059 13.3201 5.26847C12.1878 5.26636 11.2031 4.54039 10.8545 3.43268C10.8055 3.27617 10.7231 3.26983 10.5989 3.26983C7.34542 3.27194 4.09094 3.26771 0.836972 3.2767C0.453447 3.27776 0.168021 3.17042 0 2.80982C0 2.70407 0 2.59885 0 2.4931ZM13.3331 4.00213C14.0772 3.99949 14.6851 3.38033 14.6804 2.62899C14.6757 1.87659 14.0642 1.26431 13.3195 1.26642C12.5749 1.26907 11.9738 1.88505 11.978 2.64274C11.9816 3.40254 12.5822 4.00425 13.3331 4.00213Z" fill="white"/>
</svg>
