<svg width="14" height="12" viewBox="0 0 14 12" fill="none" xmlns="http://www.w3.org/2000/svg">
<path d="M9.93362 9.7025C9.93362 9.5779 9.93362 9.49779 9.93362 9.41769C9.93362 6.53784 9.93362 3.658 9.93419 0.778711C9.93419 0.373186 10.1051 0.122305 10.4384 0.0288505C10.8311 -0.0812923 11.2436 0.193508 11.2826 0.594028C11.2911 0.683588 11.2889 0.774261 11.2889 0.864378C11.2894 3.72308 11.2889 6.58235 11.2889 9.44105C11.2889 9.51448 11.2889 9.58735 11.2889 9.70806C11.3749 9.6313 11.4258 9.58846 11.4733 9.54229C11.913 9.11118 12.351 8.67784 12.7918 8.24728C13.1115 7.93465 13.5206 7.91574 13.8052 8.1961C14.0842 8.4709 14.0627 8.88032 13.7458 9.19295C12.8789 10.0479 12.0109 10.9024 11.14 11.754C10.8022 12.0845 10.4214 12.08 10.0807 11.7463C9.21101 10.8935 8.34241 10.0402 7.47551 9.18516C7.1592 8.87309 7.14392 8.46312 7.43194 8.18776C7.71374 7.91852 8.11833 7.93743 8.43069 8.24116C8.87206 8.67061 9.31004 9.10395 9.74971 9.53506C9.79725 9.58235 9.84817 9.62518 9.93362 9.7025Z" fill="#005CFA"/>
<path d="M2.71144 2.29082C2.6226 2.37148 2.5711 2.41542 2.52301 2.46271C2.07824 2.89883 1.63687 3.33773 1.18927 3.77107C0.881439 4.06923 0.466662 4.07647 0.191087 3.79833C-0.076 3.52909 -0.0635511 3.12245 0.231263 2.83152C1.10722 1.96595 1.98544 1.10261 2.86592 0.240938C3.19468 -0.0811457 3.57947 -0.0800332 3.90937 0.242607C4.78476 1.09983 5.65845 1.95816 6.52988 2.81872C6.83884 3.12356 6.85468 3.52575 6.57854 3.80166C6.29787 4.08258 5.88423 4.06478 5.56508 3.75327C5.08014 3.27932 4.59746 2.80315 4.06668 2.28136C4.06668 2.41097 4.06668 2.4883 4.06668 2.56562C4.06668 5.44546 4.06668 8.32475 4.06668 11.2046C4.06668 11.6174 3.90484 11.866 3.57721 11.965C3.17658 12.0863 2.75444 11.8098 2.71766 11.3993C2.70974 11.3097 2.712 11.2191 2.712 11.1289C2.712 8.27691 2.712 5.42544 2.712 2.57341C2.71144 2.49831 2.71144 2.42266 2.71144 2.29082Z" fill="#005CFA"/>
</svg>
