<svg width="18" height="13" viewBox="0 0 18 13" fill="none" xmlns="http://www.w3.org/2000/svg">
<path d="M2.40674 10.6747C1.97193 10.2618 1.53334 9.85285 1.10293 9.43484C0.938697 9.2759 0.760619 9.17382 0.530941 9.21323C0.289937 9.25458 0.118151 9.39284 0.0376071 9.63447C-0.0429373 9.87546 0.00740292 10.0925 0.174155 10.278C0.322659 10.4434 0.478084 10.6023 0.630363 10.7638C1.25018 11.419 1.86936 12.0754 2.48981 12.7299C2.83023 13.0884 3.1694 13.0904 3.50794 12.7337C4.27248 11.9274 5.0345 11.1192 5.79842 10.3116C5.97398 10.1261 6.04508 9.911 5.97083 9.65838C5.8991 9.41416 5.73423 9.26685 5.49386 9.21775C5.25852 9.1693 5.06597 9.25975 4.90299 9.43354C4.54054 9.81925 4.17557 10.203 3.81312 10.5887C3.76467 10.6398 3.72125 10.696 3.67532 10.7496C3.65707 10.7444 3.63945 10.7386 3.6212 10.7335C3.6212 10.6527 3.6212 10.5726 3.6212 10.4918C3.6212 7.27498 3.6212 4.05814 3.6212 0.841949C3.6212 0.749558 3.62246 0.655876 3.61176 0.564779C3.57338 0.235923 3.30532 -0.00571156 2.99258 0.000102997C2.67732 0.00591755 2.4187 0.254014 2.38975 0.582223C2.3822 0.667506 2.38409 0.754081 2.38409 0.84001C2.38346 4.05685 2.38346 7.27369 2.38346 10.4899C2.38346 10.5681 2.38346 10.6456 2.38346 10.7238C2.39038 10.707 2.39856 10.6908 2.40674 10.6747Z" fill="#005CFA"/>
<path d="M12.9982 0.999004C11.5697 0.999004 10.1413 0.999512 8.71291 0.998496C8.34562 0.997988 8.098 0.865404 8.02225 0.63427C7.92549 0.340654 8.15338 0.0587222 8.53022 0.00995555C8.6066 -0.000204172 8.68617 0.000303814 8.76383 0.000303814C11.5882 -0.000204172 14.4119 -0.000204172 17.2363 0.00131979C17.3522 0.00131979 17.4738 0.00639965 17.5832 0.0338309C17.8538 0.100377 18.0301 0.336083 17.9957 0.560612C17.9607 0.789206 17.7277 0.973605 17.4387 0.993416C17.3089 1.00256 17.1784 0.999512 17.0479 0.999512C15.6984 0.999004 14.3483 0.999004 12.9982 0.999004Z" fill="#005CFA"/>
<path d="M12.0047 4.00028C13.113 4.00028 14.2213 3.99926 15.3289 4.00129C15.6865 4.0018 15.9485 4.17364 15.9935 4.42529C16.0429 4.70236 15.8068 4.95199 15.4536 4.99418C15.403 5.00028 15.3504 4.99977 15.2985 4.99977C13.0953 4.99977 10.892 5.00028 8.6888 4.99977C8.26726 4.99977 7.97232 4.76642 8.00206 4.46291C8.02865 4.19143 8.28055 4.00383 8.64133 4.00231C9.37363 3.99824 10.1059 4.00078 10.8382 4.00078C11.2269 4.00028 11.6161 4.00028 12.0047 4.00028Z" fill="#005CFA"/>
<path d="M10.9965 8.99904C10.2 8.99904 9.40346 9.00158 8.60758 8.99752C8.33539 8.9965 8.10146 8.84978 8.02745 8.65128C7.95094 8.44617 8.03623 8.21365 8.26013 8.10095C8.36926 8.04612 8.50974 8.0055 8.63643 8.00499C10.21 7.99839 11.7836 7.99941 13.3571 8.00195C13.7322 8.00245 14.0025 8.22025 14 8.50557C13.9975 8.79038 13.729 8.99752 13.3471 8.99853C12.5638 9.00107 11.7798 8.99955 10.9965 8.99955V8.99904Z" fill="#005CFA"/>
<path d="M9.99767 12.0039C10.4763 12.0039 10.9556 11.9978 11.4342 12.0059C11.7056 12.0105 11.9307 12.1779 11.9861 12.3886C12.0439 12.6089 11.9178 12.8424 11.6711 12.9383C11.5776 12.9748 11.4656 12.9956 11.3623 12.9961C10.4548 13.0007 9.54732 13.0012 8.63985 12.9977C8.26763 12.9961 8.00123 12.782 8 12.4997C7.99877 12.215 8.26025 12.0064 8.63677 12.0023C9.0902 11.9978 9.54424 12.0013 9.99829 12.0013C9.99767 12.0023 9.99767 12.0033 9.99767 12.0039Z" fill="#005CFA"/>
</svg>
